<svg role="img" viewBox="0 0 48 48" xmlns="http://www.w3.org/2000/svg" id="Ltspice--Streamline-Simple-Icons" height="48" width="48">
  <desc>
    Ltspice Streamline Icon: https://streamlinehq.com
  </desc>
  <title>LTspice</title>
  <path d="M18.6534 6.9696c-1.593 1.254 -1.9488 3.2424 -2.3288 6.6346 -0.7306 6.514 -1.282 10.3964 -2.0946 17.316 -0.398 3.4026 1.9512 3.803 4.7292 3.7722h5.7682c0.5208 0.004 0.705 0.2458 0.6386 0.7614 -0.2482 1.9308 -0.5158 5.5764 -2.38 5.5764L0 40.9866s5.6608 -2.064 6.33 -6.7446L9.0094 12.468c0.4172 -2.714 2.577 -5.4984 5.268 -5.4984h4.376zm11.1134 34.0612c2.6908 0 4.8508 -2.7844 5.268 -5.4982L37.714 13.7584c0.6692 -4.6808 6.33 -6.7446 6.33 -6.7446L21.058 6.97c-1.8642 0 -2.1316 3.6456 -2.38 5.5764 -0.0664 0.5156 0.1178 0.7574 0.6386 0.7612h5.7682c2.778 -0.0306 5.1272 0.37 4.7292 3.7722 -0.8124 6.92 -1.364 10.802 -2.0946 17.3162 -0.38 3.392 -0.7358 5.3806 -2.3288 6.6346h4.376zM46.404 13.3056c0.518 0.0012 0.9928 -0.4184 1.0568 -0.9316l0.5324 -4.4618c0.0626 -0.513 -0.3098 -0.943 -0.8266 -0.943h-1.7594c-2.1766 0 -4.4044 3.5904 -4.5118 5.392 -0.0678 0.517 0.302 0.9392 0.8228 0.9444h4.6858z" fill="#ff0002" stroke-width="2"></path>
</svg>